<svg width="71" height="71" viewBox="0 0 71 71" fill="none" xmlns="http://www.w3.org/2000/svg">
<path fill-rule="evenodd" clip-rule="evenodd" d="M26.4675 31.0072C25.8406 31.0072 25.3325 31.5154 25.3325 32.1422V43.4922C25.3325 44.119 25.8406 44.6272 26.4675 44.6272H44.6274C45.2542 44.6272 45.7624 44.119 45.7624 43.4922V32.1422C45.7624 31.5154 45.2542 31.0072 44.6274 31.0072H26.4675ZM23.0625 32.1422C23.0625 30.2617 24.587 28.7372 26.4675 28.7372H44.6274C46.5079 28.7372 48.0324 30.2617 48.0324 32.1422V43.4922C48.0324 45.3727 46.5079 46.8972 44.6274 46.8972H26.4675C24.587 46.8972 23.0625 45.3727 23.0625 43.4922V32.1422Z" fill="#1565D8"/>
<path fill-rule="evenodd" clip-rule="evenodd" d="M30.8698 25.1946C31.5083 24.556 32.3744 24.1973 33.2774 24.1973H37.8174C38.7205 24.1973 39.5866 24.556 40.2251 25.1946C40.8637 25.8331 41.2224 26.6992 41.2224 27.6022V45.7622C41.2224 46.389 40.7143 46.8972 40.0874 46.8972C39.4606 46.8972 38.9524 46.389 38.9524 45.7622V27.6022C38.9524 27.3012 38.8328 27.0125 38.62 26.7997C38.4071 26.5868 38.1184 26.4673 37.8174 26.4673H33.2774C32.9764 26.4673 32.6877 26.5868 32.4749 26.7997C32.262 27.0125 32.1425 27.3012 32.1425 27.6022V45.7622C32.1425 46.389 31.6343 46.8972 31.0075 46.8972C30.3806 46.8972 29.8725 46.389 29.8725 45.7622V27.6022C29.8725 26.6992 30.2312 25.8331 30.8698 25.1946Z" fill="#1565D8"/>
<path d="M2.9897 24.9694L35.5476 1.31469L68.1054 24.9694L55.6694 63.2434H15.4257L2.9897 24.9694Z" stroke="#1565D8" stroke-width="1.90679"/>
</svg>
