<svg width="71" height="72" viewBox="0 0 71 72" fill="none" xmlns="http://www.w3.org/2000/svg">
<path d="M27.6748 25.4048V24.6548C27.2606 24.6548 26.9248 24.9906 26.9248 25.4048H27.6748ZM43.5648 45.8348V46.5848C43.979 46.5848 44.3148 46.249 44.3148 45.8348H43.5648ZM27.6748 45.8348H26.9248C26.9248 46.249 27.2606 46.5848 27.6748 46.5848V45.8348ZM37.8898 25.4048L38.4201 24.8745C38.2795 24.7338 38.0887 24.6548 37.8898 24.6548V25.4048ZM43.5648 31.0798H44.3148C44.3148 30.8809 44.2358 30.6901 44.0951 30.5495L43.5648 31.0798ZM31.0798 40.5448C30.6656 40.5448 30.3298 40.8806 30.3298 41.2948C30.3298 41.709 30.6656 42.0448 31.0798 42.0448V40.5448ZM40.1598 42.0448C40.574 42.0448 40.9098 41.709 40.9098 41.2948C40.9098 40.8806 40.574 40.5448 40.1598 40.5448V42.0448ZM31.0798 36.0048C30.6656 36.0048 30.3298 36.3406 30.3298 36.7548C30.3298 37.169 30.6656 37.5048 31.0798 37.5048V36.0048ZM37.8898 37.5048C38.304 37.5048 38.6398 37.169 38.6398 36.7548C38.6398 36.3406 38.304 36.0048 37.8898 36.0048V37.5048ZM43.5648 45.0848H27.6748V46.5848H43.5648V45.0848ZM28.4248 45.8348V25.4048H26.9248V45.8348H28.4248ZM27.6748 26.1548H37.8898V24.6548H27.6748V26.1548ZM42.8148 31.0798V45.8348H44.3148V31.0798H42.8148ZM37.3595 25.9351L43.0345 31.6101L44.0951 30.5495L38.4201 24.8745L37.3595 25.9351ZM36.0048 25.4048V29.9448H37.5048V25.4048H36.0048ZM39.0248 32.9648H43.5648V31.4648H39.0248V32.9648ZM36.0048 29.9448C36.0048 31.6127 37.3569 32.9648 39.0248 32.9648V31.4648C38.1853 31.4648 37.5048 30.7843 37.5048 29.9448H36.0048ZM31.0798 42.0448H40.1598V40.5448H31.0798V42.0448ZM31.0798 37.5048H37.8898V36.0048H31.0798V37.5048Z" fill="#1565D8"/>
<path d="M2.9897 25.6154L35.5476 1.96069L68.1054 25.6154L55.6694 63.8894H15.4257L2.9897 25.6154Z" stroke="#1565D8" stroke-width="1.90679"/>
</svg>
