<svg width="71" height="71" viewBox="0 0 71 71" fill="none" xmlns="http://www.w3.org/2000/svg">
<path d="M3.02196 24.979L35.5485 1.34709L68.0751 24.979L55.6511 63.2163H15.446L3.02196 24.979Z" stroke="#1565D8" stroke-width="1.96"/>
<path fill-rule="evenodd" clip-rule="evenodd" d="M26.9952 39.4795C28.0594 38.4153 29.5029 37.8174 31.008 37.8174H40.0879C41.593 37.8174 43.0365 38.4153 44.1007 39.4795C45.165 40.5438 45.7629 41.9873 45.7629 43.4924V45.7623C45.7629 46.3892 45.2548 46.8973 44.6279 46.8973C44.0011 46.8973 43.4929 46.3892 43.4929 45.7623V43.4924C43.4929 42.5893 43.1342 41.7232 42.4956 41.0847C41.8571 40.4461 40.991 40.0874 40.0879 40.0874H31.008C30.1049 40.0874 29.2389 40.4461 28.6003 41.0847C27.9617 41.7232 27.603 42.5893 27.603 43.4924V45.7623C27.603 46.3892 27.0948 46.8973 26.468 46.8973C25.8412 46.8973 25.333 46.3892 25.333 45.7623V43.4924C25.333 41.9873 25.9309 40.5438 26.9952 39.4795Z" fill="#1565D8"/>
<path fill-rule="evenodd" clip-rule="evenodd" d="M35.547 26.4673C33.6665 26.4673 32.1421 27.9917 32.1421 29.8722C32.1421 31.7528 33.6665 33.2772 35.547 33.2772C37.4276 33.2772 38.952 31.7528 38.952 29.8722C38.952 27.9917 37.4276 26.4673 35.547 26.4673ZM29.8721 29.8722C29.8721 26.738 32.4128 24.1973 35.547 24.1973C38.6812 24.1973 41.222 26.738 41.222 29.8722C41.222 33.0064 38.6812 35.5472 35.547 35.5472C32.4128 35.5472 29.8721 33.0064 29.8721 29.8722Z" fill="#1565D8"/>
</svg>
